<svg xmlns="http://www.w3.org/2000/svg" xmlns:xlink="http://www.w3.org/1999/xlink" width="250" zoomAndPan="magnify" viewBox="0 0 187.5 74.999997" height="100" preserveAspectRatio="xMidYMid meet" version="1.0"><defs><g/><clipPath id="id1"><path d="M 77.148438 26.3125 L 108.648438 26.3125 L 108.648438 58.5625 L 77.148438 58.5625 Z M 77.148438 26.3125 " clip-rule="nonzero"/></clipPath></defs><g fill="#000000" fill-opacity="1"><g transform="translate(2.076089, 56.453856)"><g><path d="M 11.328125 0 C 10.847656 0 10.46875 -0.125 10.1875 -0.375 C 9.914062 -0.632812 9.722656 -1.003906 9.609375 -1.484375 L 2.484375 -36.953125 C 2.453125 -37.097656 2.4375 -37.222656 2.4375 -37.328125 C 2.4375 -37.441406 2.4375 -37.519531 2.4375 -37.5625 C 2.4375 -37.851562 2.546875 -38.109375 2.765625 -38.328125 C 2.984375 -38.554688 3.238281 -38.671875 3.53125 -38.671875 L 6.40625 -38.671875 C 7.175781 -38.671875 7.617188 -38.351562 7.734375 -37.71875 L 13.359375 -9.21875 L 19.328125 -28.78125 C 19.441406 -29.113281 19.632812 -29.414062 19.90625 -29.6875 C 20.1875 -29.96875 20.582031 -30.109375 21.09375 -30.109375 L 23.140625 -30.109375 C 23.691406 -30.109375 24.097656 -29.96875 24.359375 -29.6875 C 24.617188 -29.414062 24.785156 -29.113281 24.859375 -28.78125 L 30.875 -9.21875 L 36.453125 -37.71875 C 36.566406 -38.351562 37.023438 -38.671875 37.828125 -38.671875 L 40.703125 -38.671875 C 41.003906 -38.671875 41.265625 -38.554688 41.484375 -38.328125 C 41.703125 -38.109375 41.8125 -37.851562 41.8125 -37.5625 C 41.8125 -37.519531 41.800781 -37.441406 41.78125 -37.328125 C 41.757812 -37.222656 41.75 -37.097656 41.75 -36.953125 L 34.625 -1.484375 C 34.519531 -1.003906 34.328125 -0.632812 34.046875 -0.375 C 33.773438 -0.125 33.398438 0 32.921875 0 L 30.765625 0 C 30.253906 0 29.847656 -0.125 29.546875 -0.375 C 29.253906 -0.632812 29.050781 -0.96875 28.9375 -1.375 L 22.09375 -22.421875 L 15.296875 -1.375 C 15.148438 -0.96875 14.9375 -0.632812 14.65625 -0.375 C 14.382812 -0.125 13.992188 0 13.484375 0 Z M 11.328125 0 "/></g></g></g><g fill="#000000" fill-opacity="1"><g transform="translate(44.157786, 56.453856)"><g><path d="M 5.359375 0 C 4.992188 0 4.691406 -0.117188 4.453125 -0.359375 C 4.210938 -0.597656 4.09375 -0.898438 4.09375 -1.265625 L 4.09375 -27.453125 C 4.09375 -27.816406 4.210938 -28.117188 4.453125 -28.359375 C 4.691406 -28.597656 4.992188 -28.71875 5.359375 -28.71875 L 8.015625 -28.71875 C 8.378906 -28.71875 8.679688 -28.597656 8.921875 -28.359375 C 9.160156 -28.117188 9.28125 -27.816406 9.28125 -27.453125 L 9.28125 -1.265625 C 9.28125 -0.898438 9.160156 -0.597656 8.921875 -0.359375 C 8.679688 -0.117188 8.378906 0 8.015625 0 Z M 4.921875 -34.078125 C 4.546875 -34.078125 4.238281 -34.195312 4 -34.4375 C 3.757812 -34.675781 3.640625 -34.976562 3.640625 -35.34375 L 3.640625 -38.328125 C 3.640625 -38.703125 3.757812 -39.015625 4 -39.265625 C 4.238281 -39.523438 4.546875 -39.65625 4.921875 -39.65625 L 8.390625 -39.65625 C 8.765625 -39.65625 9.078125 -39.523438 9.328125 -39.265625 C 9.585938 -39.015625 9.71875 -38.703125 9.71875 -38.328125 L 9.71875 -35.34375 C 9.71875 -34.976562 9.585938 -34.675781 9.328125 -34.4375 C 9.078125 -34.195312 8.765625 -34.078125 8.390625 -34.078125 Z M 4.921875 -34.078125 "/></g></g></g><g fill="#000000" fill-opacity="1"><g transform="translate(55.368401, 56.453856)"><g><path d="M 5.359375 0 C 4.992188 0 4.691406 -0.117188 4.453125 -0.359375 C 4.210938 -0.597656 4.09375 -0.898438 4.09375 -1.265625 L 4.09375 -27.390625 C 4.09375 -27.765625 4.210938 -28.078125 4.453125 -28.328125 C 4.691406 -28.585938 4.992188 -28.71875 5.359375 -28.71875 L 7.90625 -28.71875 C 8.269531 -28.71875 8.578125 -28.585938 8.828125 -28.328125 C 9.085938 -28.078125 9.21875 -27.765625 9.21875 -27.390625 L 9.21875 -24.96875 C 9.957031 -26.21875 10.96875 -27.15625 12.25 -27.78125 C 13.539062 -28.40625 15.109375 -28.71875 16.953125 -28.71875 L 19.109375 -28.71875 C 19.472656 -28.71875 19.773438 -28.597656 20.015625 -28.359375 C 20.253906 -28.117188 20.375 -27.816406 20.375 -27.453125 L 20.375 -25.1875 C 20.375 -24.820312 20.253906 -24.523438 20.015625 -24.296875 C 19.773438 -24.078125 19.472656 -23.96875 19.109375 -23.96875 L 15.796875 -23.96875 C 13.804688 -23.96875 12.238281 -23.382812 11.09375 -22.21875 C 9.957031 -21.0625 9.390625 -19.492188 9.390625 -17.515625 L 9.390625 -1.265625 C 9.390625 -0.898438 9.257812 -0.597656 9 -0.359375 C 8.738281 -0.117188 8.425781 0 8.0625 0 Z M 5.359375 0 "/></g></g></g><g fill="#000000" fill-opacity="1"><g transform="translate(74.197198, 56.453856)"><g/></g></g><g fill="#000000" fill-opacity="1"><g transform="translate(85.573493, 56.453856)"><g/></g></g><g fill="#000000" fill-opacity="1"><g transform="translate(96.949787, 56.453856)"><g/></g></g><g fill="#000000" fill-opacity="1"><g transform="translate(108.325612, 56.453856)"><g><path d="M 14.578125 0.546875 C 12.554688 0.546875 10.804688 0.1875 9.328125 -0.53125 C 7.859375 -1.25 6.65625 -2.222656 5.71875 -3.453125 C 4.78125 -4.679688 4.078125 -6.085938 3.609375 -7.671875 C 3.148438 -9.253906 2.882812 -10.929688 2.8125 -12.703125 C 2.78125 -13.296875 2.765625 -13.847656 2.765625 -14.359375 C 2.765625 -14.878906 2.78125 -15.429688 2.8125 -16.015625 C 2.882812 -17.742188 3.148438 -19.398438 3.609375 -20.984375 C 4.078125 -22.566406 4.78125 -23.984375 5.71875 -25.234375 C 6.65625 -26.492188 7.859375 -27.484375 9.328125 -28.203125 C 10.804688 -28.921875 12.554688 -29.28125 14.578125 -29.28125 C 16.753906 -29.28125 18.5625 -28.890625 20 -28.109375 C 21.4375 -27.335938 22.613281 -26.378906 23.53125 -25.234375 L 23.53125 -37.953125 C 23.53125 -38.316406 23.648438 -38.617188 23.890625 -38.859375 C 24.128906 -39.097656 24.429688 -39.21875 24.796875 -39.21875 L 27.453125 -39.21875 C 27.816406 -39.21875 28.117188 -39.097656 28.359375 -38.859375 C 28.597656 -38.617188 28.71875 -38.316406 28.71875 -37.953125 L 28.71875 -1.265625 C 28.71875 -0.898438 28.597656 -0.597656 28.359375 -0.359375 C 28.117188 -0.117188 27.816406 0 27.453125 0 L 24.96875 0 C 24.5625 0 24.25 -0.117188 24.03125 -0.359375 C 23.8125 -0.597656 23.703125 -0.898438 23.703125 -1.265625 L 23.703125 -3.59375 C 22.773438 -2.414062 21.570312 -1.429688 20.09375 -0.640625 C 18.625 0.148438 16.785156 0.546875 14.578125 0.546875 Z M 15.734375 -3.921875 C 17.578125 -3.921875 19.050781 -4.34375 20.15625 -5.1875 C 21.257812 -6.039062 22.085938 -7.117188 22.640625 -8.421875 C 23.191406 -9.734375 23.488281 -11.066406 23.53125 -12.421875 C 23.5625 -13.015625 23.578125 -13.722656 23.578125 -14.546875 C 23.578125 -15.378906 23.5625 -16.09375 23.53125 -16.6875 C 23.488281 -17.96875 23.179688 -19.234375 22.609375 -20.484375 C 22.046875 -21.742188 21.203125 -22.773438 20.078125 -23.578125 C 18.953125 -24.390625 17.503906 -24.796875 15.734375 -24.796875 C 13.859375 -24.796875 12.367188 -24.378906 11.265625 -23.546875 C 10.160156 -22.722656 9.367188 -21.640625 8.890625 -20.296875 C 8.410156 -18.953125 8.132812 -17.507812 8.0625 -15.96875 C 8.03125 -14.894531 8.03125 -13.828125 8.0625 -12.765625 C 8.132812 -11.210938 8.410156 -9.765625 8.890625 -8.421875 C 9.367188 -7.078125 10.160156 -5.988281 11.265625 -5.15625 C 12.367188 -4.332031 13.859375 -3.921875 15.734375 -3.921875 Z M 15.734375 -3.921875 "/></g></g></g><g fill="#000000" fill-opacity="1"><g transform="translate(139.03085, 56.453856)"><g><path d="M 6.078125 0 C 5.671875 0 5.359375 -0.117188 5.140625 -0.359375 C 4.921875 -0.597656 4.8125 -0.898438 4.8125 -1.265625 L 4.8125 -37.390625 C 4.8125 -37.765625 4.921875 -38.070312 5.140625 -38.3125 C 5.359375 -38.550781 5.671875 -38.671875 6.078125 -38.671875 L 9 -38.671875 C 9.40625 -38.671875 9.71875 -38.550781 9.9375 -38.3125 C 10.164062 -38.070312 10.28125 -37.765625 10.28125 -37.390625 L 10.28125 -1.265625 C 10.28125 -0.898438 10.164062 -0.597656 9.9375 -0.359375 C 9.71875 -0.117188 9.40625 0 9 0 Z M 6.078125 0 "/></g></g></g><g fill="#000000" fill-opacity="1"><g transform="translate(151.95346, 56.453856)"><g><path d="M 5.359375 0 C 4.992188 0 4.691406 -0.117188 4.453125 -0.359375 C 4.210938 -0.597656 4.09375 -0.898438 4.09375 -1.265625 L 4.09375 -27.453125 C 4.09375 -27.816406 4.210938 -28.117188 4.453125 -28.359375 C 4.691406 -28.597656 4.992188 -28.71875 5.359375 -28.71875 L 7.953125 -28.71875 C 8.316406 -28.71875 8.617188 -28.597656 8.859375 -28.359375 C 9.097656 -28.117188 9.21875 -27.816406 9.21875 -27.453125 L 9.21875 -25.015625 C 10.175781 -26.273438 11.382812 -27.300781 12.84375 -28.09375 C 14.300781 -28.882812 16.171875 -29.28125 18.453125 -29.28125 C 20.835938 -29.28125 22.867188 -28.753906 24.546875 -27.703125 C 26.222656 -26.648438 27.492188 -25.191406 28.359375 -23.328125 C 29.222656 -21.472656 29.65625 -19.3125 29.65625 -16.84375 L 29.65625 -1.265625 C 29.65625 -0.898438 29.535156 -0.597656 29.296875 -0.359375 C 29.054688 -0.117188 28.753906 0 28.390625 0 L 25.625 0 C 25.257812 0 24.957031 -0.117188 24.71875 -0.359375 C 24.476562 -0.597656 24.359375 -0.898438 24.359375 -1.265625 L 24.359375 -16.578125 C 24.359375 -19.148438 23.734375 -21.160156 22.484375 -22.609375 C 21.234375 -24.066406 19.390625 -24.796875 16.953125 -24.796875 C 14.671875 -24.796875 12.835938 -24.066406 11.453125 -22.609375 C 10.078125 -21.160156 9.390625 -19.148438 9.390625 -16.578125 L 9.390625 -1.265625 C 9.390625 -0.898438 9.269531 -0.597656 9.03125 -0.359375 C 8.789062 -0.117188 8.488281 0 8.125 0 Z M 5.359375 0 "/></g></g></g><g clip-path="url(#id1)"><path fill="#000000" d="M 108.648438 39.914062 C 108.648438 40.628906 108.410156 41.308594 107.957031 41.875 C 107.375 42.589844 106.527344 43 105.613281 43 L 96.964844 43 C 96.65625 43 96.414062 42.753906 96.414062 42.445312 C 96.414062 42.132812 96.65625 41.886719 96.964844 41.886719 L 105.613281 41.886719 C 106.195312 41.886719 106.734375 41.628906 107.109375 41.171875 C 107.484375 40.714844 107.628906 40.113281 107.515625 39.535156 C 106.109375 32.28125 99.769531 27.214844 92.445312 27.492188 C 84.773438 27.78125 78.546875 34.097656 78.261719 41.851562 C 78.109375 45.953125 79.570312 49.851562 82.375 52.804688 C 85.191406 55.769531 88.96875 57.394531 93.027344 57.394531 C 99.828125 57.394531 105.710938 52.738281 107.363281 46.0625 C 107.441406 45.761719 107.738281 45.585938 108.035156 45.664062 C 108.332031 45.742188 108.507812 46.042969 108.429688 46.34375 C 106.660156 53.507812 100.320312 58.507812 93.027344 58.507812 C 88.671875 58.507812 84.609375 56.757812 81.59375 53.585938 C 78.582031 50.410156 77.007812 46.230469 77.171875 41.808594 C 77.480469 33.476562 84.179688 26.691406 92.410156 26.378906 C 100.277344 26.078125 107.089844 31.515625 108.605469 39.3125 C 108.640625 39.511719 108.648438 39.714844 108.648438 39.914062 Z M 82.308594 45.820312 C 82.308594 46.398438 82.773438 46.855469 83.332031 46.855469 L 91.035156 46.855469 C 91.609375 46.855469 92.058594 46.386719 92.058594 45.820312 C 92.058594 45.238281 91.597656 44.785156 91.035156 44.785156 L 83.332031 44.785156 C 82.773438 44.773438 82.308594 45.238281 82.308594 45.820312 Z M 83.34375 38.019531 L 91.046875 38.019531 C 91.617188 38.019531 92.070312 38.488281 92.070312 39.058594 C 92.070312 39.625 91.609375 40.09375 91.046875 40.09375 L 83.34375 40.09375 C 82.773438 40.09375 82.320312 39.625 82.320312 39.058594 C 82.320312 38.488281 82.773438 38.019531 83.34375 38.019531 Z M 83.34375 38.019531 " fill-opacity="1" fill-rule="nonzero"/></g><path fill="#81dbea" d="M 87.109375 35.445312 L 87.109375 49.429688 C 87.109375 50.097656 87.878906 50.464844 88.382812 50.03125 L 91.035156 48.402344 C 91.519531 48.101562 92.082031 47.945312 92.640625 47.945312 L 94.203125 47.945312 C 97.042969 47.945312 99.332031 45.617188 99.332031 42.753906 L 99.332031 42.109375 C 99.332031 39.234375 97.03125 36.917969 94.203125 36.917969 L 92.640625 36.917969 C 92.070312 36.917969 91.519531 36.761719 91.035156 36.460938 L 88.382812 34.835938 C 87.878906 34.410156 87.109375 34.777344 87.109375 35.445312 Z M 87.109375 35.445312 " fill-opacity="1" fill-rule="nonzero"/></svg>